<?xml version="1.0" standalone="no"?>
<!DOCTYPE svg PUBLIC "-//W3C//DTD SVG 20010904//EN"
 "http://www.w3.org/TR/2001/REC-SVG-20010904/DTD/svg10.dtd">
<svg version="1.0" xmlns="http://www.w3.org/2000/svg"
 width="840.000000pt" height="457.000000pt" viewBox="0 0 840.000000 457.000000"
 preserveAspectRatio="xMidYMid meet">

<g transform="translate(0.000000,457.000000) scale(0.100000,-0.100000)"
fill="#000000" stroke="none">
<path d="M3447 4155 c-90 -18 -218 -87 -692 -370 -209 -125 -387 -227 -395
-225 -60 9 -240 -11 -240 -28 0 -3 12 -21 26 -39 15 -19 22 -38 18 -43 -5 -5
-130 -75 -279 -157 -614 -339 -683 -378 -679 -384 2 -4 25 -9 51 -12 37 -4 61
1 108 20 114 48 450 201 674 307 181 86 227 104 236 94 7 -7 108 -141 225
-298 193 -259 213 -288 211 -322 -1 -26 8 -51 32 -90 64 -101 64 -92 4 -138
-61 -45 -77 -73 -77 -132 0 -93 91 -185 237 -238 81 -29 94 -31 168 -26 64 5
89 12 128 36 l48 30 42 -29 c42 -29 89 -76 159 -164 21 -25 67 -67 103 -94
l64 -47 -27 -17 c-44 -27 -2326 -1255 -2345 -1262 -19 -7 -21 -24 -8 -60 10
-24 71 -48 166 -63 44 -6 -125 -82 2021 907 l802 370 243 43 244 44 305 -58
c989 -189 1016 -193 1335 -194 l270 -1 60 29 c33 17 83 53 112 81 87 87 94
170 26 304 -69 137 -276 326 -456 418 -34 17 -111 46 -172 65 -82 24 -136 48
-210 94 -56 34 -123 73 -150 87 -53 26 -246 87 -278 87 -10 0 -17 4 -15 9 2 4
194 167 428 361 1058 879 1230 1024 1222 1032 -4 4 -35 11 -68 14 -90 10 -147
-19 -420 -208 -834 -576 -1484 -1025 -1576 -1088 l-107 -73 -268 17 c-398 25
-428 28 -410 38 9 5 23 32 32 61 13 42 13 62 4 107 -14 71 -30 95 -87 131 -55
35 -101 37 -312 14 -227 -24 -247 -31 -311 -119 -23 -31 -29 -49 -29 -91 0
-30 -5 -57 -12 -63 -8 -6 -99 -11 -225 -13 l-212 -3 -203 190 c-112 104 -267
247 -346 318 l-142 129 73 51 c41 28 275 188 520 356 246 168 447 308 447 313
0 9 -10 8 -93 -8z m2254 -1540 c88 -28 304 -144 304 -164 0 -6 -45 -38 -99
-71 -83 -50 -101 -58 -115 -48 -9 7 -71 59 -139 117 l-124 103 31 32 c17 18
31 40 31 50 0 10 5 16 13 13 6 -2 51 -17 98 -32z m-83 -235 c102 -84 121 -105
110 -115 -7 -7 -110 -76 -229 -152 -210 -136 -218 -140 -246 -128 -65 28 -105
248 -72 393 l12 50 48 4 c27 3 83 22 131 45 79 39 84 40 103 23 11 -9 76 -63
143 -120z m-1798 -45 c0 -76 -3 -95 -15 -95 -14 0 -35 56 -35 95 0 39 21 95
35 95 12 0 15 -19 15 -95z m130 -15 c0 -79 -3 -100 -14 -100 -24 0 -40 91 -26
150 7 30 17 50 26 50 11 0 14 -21 14 -100z m150 -30 c0 -83 -3 -100 -15 -100
-21 0 -37 45 -38 105 0 56 16 95 38 95 12 0 15 -19 15 -100z m140 -21 c0 -90
-2 -100 -17 -97 -52 10 -50 198 2 198 12 0 15 -19 15 -101z m825 91 c4 -6 8
-50 10 -98 2 -48 11 -116 19 -152 9 -36 16 -69 16 -74 0 -13 -118 0 -136 15
-24 20 -16 254 9 292 18 28 69 38 82 17z m-675 -110 c0 -92 -2 -100 -19 -100
-12 0 -23 11 -30 31 -24 68 -6 169 30 169 17 0 19 -8 19 -100z m160 -26 c0
-102 -1 -105 -22 -102 -61 9 -59 208 2 208 19 0 20 -7 20 -106z m180 -19 c0
-104 0 -105 -24 -105 -19 0 -26 8 -36 45 -21 74 2 165 40 165 19 0 20 -7 20
-105z"/>
</g>
</svg>
